<svg width="33" height="33" viewBox="0 0 33 33" fill="none" xmlns="http://www.w3.org/2000/svg">
<g id="la:flag-usa">
<path id="Vector" d="M3.4707 8.1416V18.1416H29.4707V16.1416H17.4707V14.1416H29.4707V12.1416H17.4707V10.1416H29.4707V8.1416H3.4707ZM5.4707 9.1416C5.73592 9.1416 5.99027 9.24696 6.17781 9.43449C6.36535 9.62203 6.4707 9.87639 6.4707 10.1416C6.4707 10.4068 6.36535 10.6612 6.17781 10.8487C5.99027 11.0362 5.73592 11.1416 5.4707 11.1416C5.20549 11.1416 4.95113 11.0362 4.7636 10.8487C4.57606 10.6612 4.4707 10.4068 4.4707 10.1416C4.4707 9.87639 4.57606 9.62203 4.7636 9.43449C4.95113 9.24696 5.20549 9.1416 5.4707 9.1416ZM9.4707 9.1416C9.73592 9.1416 9.99027 9.24696 10.1778 9.43449C10.3653 9.62203 10.4707 9.87639 10.4707 10.1416C10.4707 10.4068 10.3653 10.6612 10.1778 10.8487C9.99027 11.0362 9.73592 11.1416 9.4707 11.1416C9.20549 11.1416 8.95113 11.0362 8.7636 10.8487C8.57606 10.6612 8.4707 10.4068 8.4707 10.1416C8.4707 9.87639 8.57606 9.62203 8.7636 9.43449C8.95113 9.24696 9.20549 9.1416 9.4707 9.1416ZM13.4707 9.1416C13.7359 9.1416 13.9903 9.24696 14.1778 9.43449C14.3653 9.62203 14.4707 9.87639 14.4707 10.1416C14.4707 10.4068 14.3653 10.6612 14.1778 10.8487C13.9903 11.0362 13.7359 11.1416 13.4707 11.1416C13.2055 11.1416 12.9511 11.0362 12.7636 10.8487C12.5761 10.6612 12.4707 10.4068 12.4707 10.1416C12.4707 9.87639 12.5761 9.62203 12.7636 9.43449C12.9511 9.24696 13.2055 9.1416 13.4707 9.1416ZM7.4707 12.1416C7.73592 12.1416 7.99027 12.247 8.17781 12.4345C8.36535 12.622 8.4707 12.8764 8.4707 13.1416C8.4707 13.4068 8.36535 13.6612 8.17781 13.8487C7.99027 14.0362 7.73592 14.1416 7.4707 14.1416C7.20549 14.1416 6.95113 14.0362 6.7636 13.8487C6.57606 13.6612 6.4707 13.4068 6.4707 13.1416C6.4707 12.8764 6.57606 12.622 6.7636 12.4345C6.95113 12.247 7.20549 12.1416 7.4707 12.1416ZM11.4707 12.1416C11.7359 12.1416 11.9903 12.247 12.1778 12.4345C12.3653 12.622 12.4707 12.8764 12.4707 13.1416C12.4707 13.4068 12.3653 13.6612 12.1778 13.8487C11.9903 14.0362 11.7359 14.1416 11.4707 14.1416C11.2055 14.1416 10.9511 14.0362 10.7636 13.8487C10.5761 13.6612 10.4707 13.4068 10.4707 13.1416C10.4707 12.8764 10.5761 12.622 10.7636 12.4345C10.9511 12.247 11.2055 12.1416 11.4707 12.1416ZM15.4707 12.1416C15.7359 12.1416 15.9903 12.247 16.1778 12.4345C16.3653 12.622 16.4707 12.8764 16.4707 13.1416C16.4707 13.4068 16.3653 13.6612 16.1778 13.8487C15.9903 14.0362 15.7359 14.1416 15.4707 14.1416C15.2055 14.1416 14.9511 14.0362 14.7636 13.8487C14.5761 13.6612 14.4707 13.4068 14.4707 13.1416C14.4707 12.8764 14.5761 12.622 14.7636 12.4345C14.9511 12.247 15.2055 12.1416 15.4707 12.1416ZM5.4707 15.1416C5.73592 15.1416 5.99027 15.247 6.17781 15.4345C6.36535 15.622 6.4707 15.8764 6.4707 16.1416C6.4707 16.4068 6.36535 16.6612 6.17781 16.8487C5.99027 17.0362 5.73592 17.1416 5.4707 17.1416C5.20549 17.1416 4.95113 17.0362 4.7636 16.8487C4.57606 16.6612 4.4707 16.4068 4.4707 16.1416C4.4707 15.8764 4.57606 15.622 4.7636 15.4345C4.95113 15.247 5.20549 15.1416 5.4707 15.1416ZM9.4707 15.1416C9.73592 15.1416 9.99027 15.247 10.1778 15.4345C10.3653 15.622 10.4707 15.8764 10.4707 16.1416C10.4707 16.4068 10.3653 16.6612 10.1778 16.8487C9.99027 17.0362 9.73592 17.1416 9.4707 17.1416C9.20549 17.1416 8.95113 17.0362 8.7636 16.8487C8.57606 16.6612 8.4707 16.4068 8.4707 16.1416C8.4707 15.8764 8.57606 15.622 8.7636 15.4345C8.95113 15.247 9.20549 15.1416 9.4707 15.1416ZM13.4707 15.1416C13.7359 15.1416 13.9903 15.247 14.1778 15.4345C14.3653 15.622 14.4707 15.8764 14.4707 16.1416C14.4707 16.4068 14.3653 16.6612 14.1778 16.8487C13.9903 17.0362 13.7359 17.1416 13.4707 17.1416C13.2055 17.1416 12.9511 17.0362 12.7636 16.8487C12.5761 16.6612 12.4707 16.4068 12.4707 16.1416C12.4707 15.8764 12.5761 15.622 12.7636 15.4345C12.9511 15.247 13.2055 15.1416 13.4707 15.1416ZM3.4707 20.1416V22.1416H29.4707V20.1416H3.4707ZM3.4707 24.1416V26.1416H29.4707V24.1416H3.4707Z" fill="#F9F5F2"/>
</g>
</svg>
